<?xml version="1.0" encoding="utf-8"?>
<!-- Svg Vector Icons : http://www.onlinewebfonts.com/icon -->
<!DOCTYPE svg PUBLIC "-//W3C//DTD SVG 1.1//EN" "http://www.w3.org/Graphics/SVG/1.1/DTD/svg11.dtd">
<svg version="1.1" xmlns="http://www.w3.org/2000/svg" xmlns:xlink="http://www.w3.org/1999/xlink" x="0px" y="0px" viewBox="0 0 1000 1000" enable-background="new 0 0 1000 1000" xml:space="preserve">
<metadata> Svg Vector Icons : http://www.onlinewebfonts.com/icon </metadata>
<g><path d="M820.8,423.2c0-249.1-134-333.8-259.3-352.7c0-1.3,0.3-2.6,0.3-4.1C561.8,35,533.9,10,500,10s-60.7,25-60.7,56.4c0,1.5,0,2.8,0.3,4.1C314,89.6,179.2,174.6,179.2,423.7c0,290.4-72.2,321.6-169.2,403.2h980C893.5,745,820.8,713.6,820.8,423.2z"/><path d="M500.5,990c68.4,0,124.5-50.8,131.9-109.7H368.6C375.7,939.2,432.1,990,500.5,990z"/></g>
</svg>