<?xml version="1.0" encoding="utf-8"?>
<!-- Generator: Adobe Illustrator 17.1.0, SVG Export Plug-In . SVG Version: 6.00 Build 0)  -->
<!DOCTYPE svg PUBLIC "-//W3C//DTD SVG 1.1//EN" "http://www.w3.org/Graphics/SVG/1.1/DTD/svg11.dtd">
<svg version="1.1"
	 id="svg2" xmlns:sodipodi="http://sodipodi.sourceforge.net/DTD/sodipodi-0.dtd" xmlns:cc="http://creativecommons.org/ns#" xmlns:svg="http://www.w3.org/2000/svg" xmlns:rdf="http://www.w3.org/1999/02/22-rdf-syntax-ns#" xmlns:dc="http://purl.org/dc/elements/1.1/" xmlns:inkscape="http://www.inkscape.org/namespaces/inkscape" sodipodi:docname="blogger.svg" inkscape:version="0.47 r22583" inkscape:output_extension="org.inkscape.output.svg.inkscape" sodipodi:version="0.32"
	 xmlns="http://www.w3.org/2000/svg" xmlns:xlink="http://www.w3.org/1999/xlink" x="0px" y="0px" 
	 viewBox="0 0 200 200" enable-background="new 0 0 200 200" xml:space="preserve">
<sodipodi:namedview  inkscape:zoom="0.24748737" showgrid="false" bordercolor="#666666" inkscape:cy="122.62969" inkscape:cx="150.19857" borderopacity="1.0" pagecolor="#ffffff" id="base" inkscape:current-layer="layer1" inkscape:pageopacity="0.0" inkscape:window-height="674" inkscape:window-x="1" inkscape:window-y="281" inkscape:document-units="px" inkscape:window-width="782" inkscape:window-maximized="0" inkscape:pageshadow="2">
	</sodipodi:namedview>
<path id="rect1942" inkscape:export-xdpi="7.7063322" inkscape:export-ydpi="7.7063322" inkscape:export-filename="C:\Documents and Settings\Molumen\Desktop\path3511111.png" fill="#00ACED" d="
	M169.8,0H30.2C13.5,0,0,13.5,0,30.2v139.6C0,186.5,13.5,200,30.2,200h139.6c16.7,0,30.2-13.5,30.2-30.2V30.2
	C200,13.5,186.5,0,169.8,0z"/>
<g>
	<path fill="#FFFFFF" d="M82.6,62.2v11.7H47.7v21.9h27.5V107H47.7v22.3h34.9V141H32.9V62.2H82.6z"/>
	<path fill="#FFFFFF" d="M110,62.3c0.4,0.1,0.9,0.2,1.2,0.3c0.3,0.2,0.7,0.4,1,0.7c0.3,0.3,0.7,0.7,1.1,1.2l41.4,52.7
		c-0.2-1.3-0.3-2.6-0.3-3.7c-0.1-1.2-0.1-2.4-0.1-3.4V62.2h12.9v78.7h-7.6c-1.2,0-2.1-0.2-2.9-0.5c-0.8-0.3-1.5-1-2.2-2L113.3,86
		c0.1,1.2,0.2,2.3,0.3,3.5c0.1,1.1,0.1,2.2,0.1,3.1V141h-12.9V62.2h7.7C109,62.2,109.5,62.3,110,62.3z"/>
</g>
</svg>
