<?xml version="1.0" encoding="utf-8"?>
<!-- Generator: Adobe Illustrator 17.1.0, SVG Export Plug-In . SVG Version: 6.00 Build 0)  -->
<!DOCTYPE svg PUBLIC "-//W3C//DTD SVG 1.1//EN" "http://www.w3.org/Graphics/SVG/1.1/DTD/svg11.dtd">
<svg version="1.1"
	 id="svg2" xmlns:sodipodi="http://sodipodi.sourceforge.net/DTD/sodipodi-0.dtd" xmlns:cc="http://creativecommons.org/ns#" xmlns:svg="http://www.w3.org/2000/svg" xmlns:rdf="http://www.w3.org/1999/02/22-rdf-syntax-ns#" xmlns:dc="http://purl.org/dc/elements/1.1/" xmlns:inkscape="http://www.inkscape.org/namespaces/inkscape" sodipodi:docname="blogger.svg" inkscape:version="0.47 r22583" inkscape:output_extension="org.inkscape.output.svg.inkscape" sodipodi:version="0.32"
	 xmlns="http://www.w3.org/2000/svg" xmlns:xlink="http://www.w3.org/1999/xlink" x="0px" y="0px" 
	 viewBox="0 0 200 200" enable-background="new 0 0 200 200" xml:space="preserve">
<sodipodi:namedview  inkscape:zoom="0.24748737" showgrid="false" bordercolor="#666666" inkscape:cy="122.62969" inkscape:cx="150.19857" borderopacity="1.0" pagecolor="#ffffff" id="base" inkscape:current-layer="layer1" inkscape:pageopacity="0.0" inkscape:window-height="674" inkscape:window-x="1" inkscape:window-y="281" inkscape:document-units="px" inkscape:window-width="782" inkscape:window-maximized="0" inkscape:pageshadow="2">
	</sodipodi:namedview>
<path id="rect1942" inkscape:export-xdpi="7.7063322" inkscape:export-ydpi="7.7063322" inkscape:export-filename="C:\Documents and Settings\Molumen\Desktop\path3511111.png" fill="#00ACED" d="
	M169.8,0H30.2C13.5,0,0,13.5,0,30.2v139.6C0,186.5,13.5,200,30.2,200h139.6c16.7,0,30.2-13.5,30.2-30.2V30.2
	C200,13.5,186.5,0,169.8,0z"/>
<g>
	<path fill="#FFFFFF" d="M91.7,62.2v11.7H56.9v21.9h27.5V107H56.9v22.3h34.9V141H42.1V62.2H91.7z"/>
	<path fill="#FFFFFF" d="M157.5,76.6c-0.4,0.8-0.9,1.4-1.4,1.7c-0.5,0.3-1.2,0.5-1.9,0.5c-0.7,0-1.5-0.3-2.5-0.9
		c-0.9-0.6-2-1.2-3.2-1.9s-2.6-1.3-4.3-1.9c-1.6-0.6-3.6-0.9-5.9-0.9c-2,0-3.8,0.3-5.3,0.8c-1.5,0.5-2.8,1.2-3.8,2
		c-1,0.9-1.8,2-2.3,3.1c-0.5,1.2-0.8,2.6-0.8,4c0,1.9,0.5,3.4,1.5,4.6c1,1.3,2.4,2.3,4.1,3.1c1.7,0.9,3.7,1.6,5.8,2.4
		c2.2,0.7,4.4,1.4,6.6,2.2c2.3,0.8,4.5,1.7,6.6,2.7c2.2,1,4.1,2.4,5.8,3.9c1.7,1.6,3.1,3.5,4.1,5.8c1,2.3,1.5,5.1,1.5,8.3
		c0,3.6-0.6,6.9-1.8,10c-1.2,3.1-3,5.8-5.4,8.1c-2.4,2.3-5.2,4.1-8.6,5.4c-3.4,1.4-7.2,2-11.6,2c-2.5,0-4.9-0.3-7.4-0.8
		s-4.8-1.2-7-2.1c-2.2-0.9-4.3-2-6.3-3.2c-2-1.3-3.7-2.7-5.2-4.3l4.3-7.1c0.4-0.5,0.9-0.9,1.4-1.3c0.6-0.3,1.2-0.5,1.9-0.5
		c0.9,0,1.9,0.3,3,1.1c1,0.8,2.3,1.5,3.7,2.5c1.4,0.9,3.1,1.7,5.1,2.5c2,0.8,4.3,1.1,7,1.1c4.2,0,7.4-1,9.7-3c2.3-2,3.4-4.9,3.4-8.5
		c0-2-0.5-3.7-1.5-5.1c-1-1.3-2.4-2.4-4.1-3.3c-1.7-0.9-3.7-1.6-5.8-2.3c-2.2-0.6-4.4-1.3-6.6-2c-2.2-0.8-4.4-1.6-6.6-2.6
		c-2.2-1-4.1-2.4-5.8-4c-1.7-1.6-3.1-3.7-4.1-6.1c-1-2.5-1.5-5.4-1.5-9.1c0-2.9,0.6-5.7,1.7-8.4s2.8-5.1,5-7.2
		c2.2-2.1,4.9-3.8,8.1-5.1c3.2-1.3,6.8-1.9,11-1.9c4.7,0,8.9,0.8,12.9,2.2c3.9,1.4,7.2,3.5,10,6.1L157.5,76.6z"/>
</g>
</svg>
